<svg xmlns="http://www.w3.org/2000/svg" xml:space="preserve" width="1500" height="1500" data-id="lg_rNxdR5NxQXdWm9LYU6" data-version="1" viewBox="0 0 1500 1500"><path fill="#444f5a" stroke="transparent" d="M0 0h1500v1500H0z"/><g data-padding="20"><g transform="translate(-330.292 -335.577)scale(1.41723)"><g transform="translate(199.276 375.12)scale(2.29)"><linearGradient id="a" x1="0" x2="1" y1="0" y2="0" gradientUnits="objectBoundingBox"><stop offset="0%" stop-color="#ff6cab"/><stop offset="100%" stop-color="#7366ff"/></linearGradient><path fill="url(#a)" fill-rule="evenodd" d="M168.031 173.03c-5.7-1.7-11.5-3.3-17.82-4.4a67 67 0 0 1-2.64-13.59c-.15-1.59-.51-3.66-.18-5.12.47-2.05 5.14-6.45 6.7-7.93a27 27 0 0 1 8.83-5.65c2.34-.99 7.93 0 10.76.7a25 25 0 0 1 7.76 3.36c.83 4.05 1.35 8.3 1.94 12.88.18 1.4.74 3.29.53 4.4-.27 1.41-2.74 2.76-4.06 3.89a128 128 0 0 0-11.82 11.46" transform="translate(-34.71 -30.06)"/></g><g transform="translate(199.276 375.144)scale(2.29)"><linearGradient id="b" x1="0" x2="1" y1="0" y2="0" gradientUnits="objectBoundingBox"><stop offset="0%" stop-color="#ff6cab"/><stop offset="100%" stop-color="#7366ff"/></linearGradient><path fill="url(#b)" d="M168.031 173.05a153 153 0 0 0-17.82-4.41 67 67 0 0 1-2.65-13.6l-.1-.97c-.17-1.4-.35-2.98-.08-4.15.47-2.04 5.14-6.46 6.67-7.9l.04-.04a27 27 0 0 1 8.81-5.65 8 8 0 0 1 2.86-.41c2.52 0 5.74.58 7.91 1.12 2.83.7 5.52 1.87 7.76 3.35.77 3.73 1.27 7.62 1.8 11.75l.15 1.14q.1.66.25 1.43c.2 1.09.42 2.21.28 2.98-.2 1.02-1.57 2.03-2.8 2.92q-.7.5-1.26.97a127 127 0 0 0-11.82 11.46m-2.26-37.12q-1.87 0-2.85.42a27 27 0 0 0-8.82 5.64l-.03.03c-1.54 1.45-6.2 5.87-6.67 7.9-.27 1.17-.09 2.75.07 4.15l.1.97a67 67 0 0 0 2.65 13.58 152 152 0 0 1 17.8 4.4c3.3-3.69 7.39-7.65 11.83-11.46q.54-.45 1.27-.97c1.21-.89 2.59-1.89 2.78-2.9.14-.77-.07-1.9-.28-2.97q-.16-.78-.25-1.44l-.15-1.14c-.53-4.13-1.03-8.02-1.8-11.74a26 26 0 0 0-7.74-3.34 36 36 0 0 0-7.91-1.13" transform="translate(-34.7 -30.06)"/></g><g transform="translate(317.852 414.005)scale(2.29)"><linearGradient id="c" x1="0" x2="1" y1="0" y2="0" gradientUnits="objectBoundingBox"><stop offset="0%" stop-color="#ff6cab"/><stop offset="100%" stop-color="#7366ff"/></linearGradient><path fill="url(#c)" fill-rule="evenodd" d="M213.721 151.16c4.39.9 7.85 2.74 11.12 4.76a99 99 0 0 1 3.17 9.53c.94 3.3 2.19 7.22 1.77 10.94-.28 2.44-2.18 6.5-3.36 8.64-1.41 2.58-3.23 5-5.11 6.7q-5.69-2.95-12-5.29c-.37-6.08-1.55-11.18-3-16.4-.4-1.43-1.5-3.8-1.4-4.94.1-1.5 3.36-5.37 4.22-6.7 1.85-2.86 3.14-5.04 4.6-7.24" transform="translate(-86.48 -47.03)"/></g><g transform="translate(317.83 414.005)scale(2.29)"><linearGradient id="d" x1="0" x2="1" y1="0" y2="0" gradientUnits="objectBoundingBox"><stop offset="0%" stop-color="#ff6cab"/><stop offset="100%" stop-color="#7366ff"/></linearGradient><path fill="url(#d)" d="M221.311 191.75a105 105 0 0 0-12-5.3c-.39-6.29-1.68-11.6-3-16.41q-.22-.72-.56-1.64c-.43-1.19-.92-2.54-.86-3.3.09-1.1 1.85-3.46 3.14-5.19.46-.62.87-1.17 1.1-1.52.88-1.37 1.63-2.56 2.35-3.72q1.12-1.82 2.23-3.51c4.5.92 8.01 2.83 11.13 4.75a99 99 0 0 1 3.18 9.54l.23.8c.9 3.15 1.93 6.72 1.53 10.14-.28 2.53-2.31 6.76-3.35 8.65a26 26 0 0 1-5.11 6.7Zm-7.6-40.58-2.21 3.51c-.73 1.16-1.47 2.35-2.36 3.72-.23.36-.63.9-1.1 1.52-1.28 1.73-3.05 4.09-3.13 5.18-.06.76.43 2.1.86 3.3q.34.91.55 1.63a77 77 0 0 1 3 16.41 107 107 0 0 1 11.99 5.28 26 26 0 0 0 5.1-6.7c1.03-1.88 3.06-6.1 3.35-8.64.4-3.41-.63-6.98-1.53-10.12l-.23-.8a99 99 0 0 0-3.18-9.53c-3.1-1.93-6.6-3.84-11.1-4.76" transform="translate(-86.48 -47.04)"/></g><g transform="translate(251.992 432.6)scale(2.29)"><linearGradient id="e" x1="0" x2="1" y1="0" y2="0" gradientUnits="objectBoundingBox"><stop offset="0%" stop-color="#ff6cab"/><stop offset="100%" stop-color="#7366ff"/></linearGradient><path fill="url(#e)" fill-rule="evenodd" d="M184.261 158.75c7.51 1.25 13.79 3.73 19.94 6.35 1.38 4.64 3.04 9.6 3.88 15.17.26 1.76.82 4.27.53 5.82-.26 1.37-2.17 2.87-3.36 4.06-3.8 3.81-7.43 7.44-12 10.23a79 79 0 0 1-20.28-6.35 295 295 0 0 1-3.35-15.17c-.31-1.55-1.23-3.61-1.06-4.94.15-1.15 2.18-3.07 3.35-4.24 3.94-3.93 8.53-7.6 12.35-10.93" transform="translate(-57.72 -55.15)"/></g><g transform="translate(251.969 432.577)scale(2.29)"><linearGradient id="f" x1="0" x2="1" y1="0" y2="0" gradientUnits="objectBoundingBox"><stop offset="0%" stop-color="#ff6cab"/><stop offset="100%" stop-color="#7366ff"/></linearGradient><path fill="url(#f)" d="M193.261 200.39a79 79 0 0 1-20.3-6.35c-1.3-5.1-2.41-10.5-3.35-15.18-.1-.53-.28-1.1-.46-1.72-.35-1.15-.71-2.35-.6-3.23.13-1.04 1.8-2.7 3.03-3.91l.33-.33c2.82-2.82 5.94-5.47 8.96-8.03l3.39-2.9c7.58 1.26 14 3.83 19.94 6.35l.68 2.23c1.23 4.06 2.5 8.26 3.2 12.94l.19 1.12c.27 1.62.58 3.46.34 4.7-.2 1.1-1.45 2.28-2.56 3.32l-.79.75-.04.04c-3.8 3.81-7.4 7.41-11.95 10.2Zm-9-41.64q-1.6 1.4-3.38 2.9a147 147 0 0 0-8.96 8.04l-.33.33c-1.15 1.14-2.89 2.86-3.02 3.9-.11.87.25 2.06.6 3.22q.28.91.46 1.71c.94 4.68 2.05 10.09 3.35 15.17a79 79 0 0 0 20.28 6.35c4.54-2.78 8.14-6.38 11.95-10.2l.04-.03q.36-.37.79-.76c1.1-1.03 2.35-2.2 2.56-3.3.23-1.24-.08-3.07-.35-4.7l-.18-1.11c-.7-4.69-1.98-8.88-3.21-12.94l-.67-2.23c-5.93-2.51-12.35-5.08-19.93-6.35" transform="translate(-57.71 -55.15)"/></g><g transform="translate(224.077 497.888)scale(2.29)"><linearGradient id="g" x1="0" x2="1" y1="0" y2="0" gradientUnits="objectBoundingBox"><stop offset="0%" stop-color="#ff6cab"/><stop offset="100%" stop-color="#7366ff"/></linearGradient><path fill="url(#g)" fill-rule="evenodd" d="M172.441 194.56c6.25 2.75 12.82 5.17 20.64 6.35.76 2.02 1.15 4.16 1.77 6.52.5 1.96 1.88 4.66 1.58 6.53-.3 1.9-4.73 4.5-6.88 5.47-6.47 2.92-13.48 2.77-20.63.36-2.73-.92-7.23-2.72-8.65-4.24-1.25-1.33-2.06-4.14-2.65-6.17-.7-2.47-.98-4.83-1.23-7.59 5.68-2.08 11-4.51 16.05-7.23" transform="translate(-45.53 -83.66)"/></g><g transform="translate(224.077 497.91)scale(2.29)"><linearGradient id="h" x1="0" x2="1" y1="0" y2="0" gradientUnits="objectBoundingBox"><stop offset="0%" stop-color="#ff6cab"/><stop offset="100%" stop-color="#7366ff"/></linearGradient><path fill="url(#h)" d="M179.291 221.62c-3.3 0-6.8-.61-10.38-1.82-3.16-1.07-7.32-2.82-8.65-4.24-1.26-1.35-2.1-4.26-2.65-6.18-.73-2.55-1-5.05-1.23-7.59a125 125 0 0 0 16.06-7.24c5.53 2.44 12.3 5.1 20.64 6.35.55 1.43.9 2.92 1.28 4.5l.5 2.03q.24.9.63 1.95c.57 1.61 1.16 3.28.95 4.58-.3 1.92-4.85 4.56-6.88 5.48a25 25 0 0 1-10.27 2.18m-6.85-27.05a123 123 0 0 1-16.05 7.23c.24 2.53.51 5.02 1.24 7.57.55 1.92 1.39 4.83 2.65 6.17 1.32 1.42 5.48 3.17 8.64 4.23a33 33 0 0 0 10.37 1.83c3.6 0 7.05-.74 10.26-2.18 2.03-.91 6.57-3.56 6.88-5.46.2-1.3-.39-2.97-.96-4.57-.24-.7-.48-1.36-.63-1.95q-.27-1.05-.5-2.04a36 36 0 0 0-1.27-4.49c-8.34-1.25-15.11-3.9-20.63-6.34" transform="translate(-45.53 -83.67)"/></g><g transform="translate(236.328 324.054)scale(2.29)"><linearGradient id="i" x1="0" x2="1" y1="0" y2="0" gradientUnits="objectBoundingBox"><stop offset="0%" stop-color="#ff6cab"/><stop offset="100%" stop-color="#7366ff"/></linearGradient><path fill="url(#i)" fill-rule="evenodd" d="M199.791 128.22c.12 2.6.32 5.25-.18 7.59-6.71.52-12.81 1.66-17.64 4.06-4.65-2.88-10.59-4.47-18-4.59-.1-2.54-.1-5.2-.35-7.58 9.62-4.5 27.06-4.28 36.18.52" transform="translate(-50.88 -7.75)"/></g><g transform="translate(236.328 324.077)scale(2.29)"><linearGradient id="j" x1="0" x2="1" y1="0" y2="0" gradientUnits="objectBoundingBox"><stop offset="0%" stop-color="#ff6cab"/><stop offset="100%" stop-color="#7366ff"/></linearGradient><path fill="url(#j)" d="M181.971 139.88c-4.73-2.93-10.78-4.47-18-4.59l-.08-2.4c-.05-1.74-.1-3.55-.28-5.2 4.4-2.04 10.76-3.22 17.46-3.22 7.36 0 14.19 1.37 18.72 3.76l.04.74c.12 2.33.24 4.73-.21 6.85-7.67.6-13.28 1.9-17.65 4.07m-.9-15.4c-6.7 0-13.06 1.17-17.44 3.22.18 1.64.23 3.45.28 5.2l.07 2.38c7.21.1 13.27 1.65 17.99 4.58 4.37-2.18 9.97-3.47 17.64-4.06.44-2.11.32-4.52.2-6.84l-.03-.73c-4.53-2.39-11.35-3.76-18.7-3.76" transform="translate(-50.88 -7.76)"/></g><g transform="translate(308.463 346.335)scale(2.29)"><linearGradient id="k" x1="0" x2="1" y1="0" y2="0" gradientUnits="objectBoundingBox"><stop offset="0%" stop-color="#ff6cab"/><stop offset="100%" stop-color="#7366ff"/></linearGradient><path fill="url(#k)" fill-rule="evenodd" d="M200.671 128.58q17.78 7.45 25.58 24.87c-.48.52-.81 1.19-1.24 1.77a41 41 0 0 0-11.11-4.77c-4.07-5.28-7.9-10.8-13.58-14.46.17-2.41.47-4.7.35-7.41" transform="translate(-82.38 -17.48)"/></g><g transform="translate(308.463 346.313)scale(2.29)"><linearGradient id="l" x1="0" x2="1" y1="0" y2="0" gradientUnits="objectBoundingBox"><stop offset="0%" stop-color="#ff6cab"/><stop offset="100%" stop-color="#7366ff"/></linearGradient><path fill="url(#l)" d="M225.021 155.23h-.01a42 42 0 0 0-11.11-4.78l-1.38-1.8c-3.53-4.63-7.17-9.41-12.21-12.66l.12-1.57c.16-1.83.32-3.73.23-5.85v-.02l.01.01c11.8 4.94 20.4 13.3 25.58 24.88q-.44.51-.78 1.1Zm-24.34-26.64c.09 2.12-.07 4.01-.23 5.84l-.13 1.56c5.04 3.25 8.69 8.03 12.21 12.66l1.38 1.8a41 41 0 0 1 11.1 4.75q.23-.32.44-.67c.24-.37.49-.76.79-1.08-5.18-11.55-13.78-19.93-25.56-24.86" transform="translate(-82.38 -17.47)"/></g><g transform="translate(141.66 405.166)scale(2.29)"><linearGradient id="m" x1="0" x2="1" y1="0" y2="0" gradientUnits="objectBoundingBox"><stop offset="0%" stop-color="#ff6cab"/><stop offset="100%" stop-color="#7366ff"/></linearGradient><path fill="url(#m)" fill-rule="evenodd" d="M146.681 149.92c.35 6.9 1.01 13.47 3 18.7-3.15 4.73-6.07 9.7-7.05 16.59-2.48.79-6.3.62-8.82 0-3.21-4.19-2.96-12.65-1.94-18.89 1.01-6.2 3.14-11.96 5.64-16.05 2.46-1.12 6.28-1 9.17-.36" transform="translate(-9.53 -43.16)"/></g><g transform="translate(141.66 405.166)scale(2.29)"><linearGradient id="n" x1="0" x2="1" y1="0" y2="0" gradientUnits="objectBoundingBox"><stop offset="0%" stop-color="#ff6cab"/><stop offset="100%" stop-color="#7366ff"/></linearGradient><path fill="url(#n)" d="M138.511 185.75c-1.62 0-3.34-.2-4.7-.53-3.86-5.04-2.47-15.73-1.95-18.9.97-5.92 3.02-11.77 5.64-16.06a12 12 0 0 1 4.75-.84c1.44 0 3.01.17 4.44.48.31 6.18.91 13.22 3 18.71-3.02 4.53-6.05 9.54-7.05 16.59-1.1.36-2.53.54-4.13.54m3.74-36.3c-1.9 0-3.53.29-4.73.84-2.62 4.29-4.68 10.14-5.64 16.04-.52 3.17-1.9 13.86 1.92 18.88 1.36.33 3.08.53 4.7.53a14 14 0 0 0 4.12-.53c1-7.04 4.03-12.05 7.05-16.58-2.1-5.49-2.7-12.53-3-18.7-1.42-.3-3-.47-4.43-.47" transform="translate(-9.54 -43.16)"/></g><g transform="translate(332.142 463.675)scale(2.29)"><linearGradient id="o" x1="0" x2="1" y1="0" y2="0" gradientUnits="objectBoundingBox"><stop offset="0%" stop-color="#ff6cab"/><stop offset="100%" stop-color="#7366ff"/></linearGradient><path fill="url(#o)" fill-rule="evenodd" d="M230.481 177.62q.3-.04.35.18a48.3 48.3 0 0 1-11.46 28.4c-.75.9-1.41 2.45-2.82 2.47-.53-1.31.7-2.6 1.23-3.7a43 43 0 0 0 4.06-12.7c3.85-3.92 6.45-9.08 8.64-14.65" transform="translate(-92.73 -68.71)"/></g><g transform="translate(332.165 463.675)scale(2.29)"><linearGradient id="p" x1="0" x2="1" y1="0" y2="0" gradientUnits="objectBoundingBox"><stop offset="0%" stop-color="#ff6cab"/><stop offset="100%" stop-color="#7366ff"/></linearGradient><path fill="url(#p)" d="M216.541 208.68c-.4-1 .2-2 .75-2.87q.28-.45.48-.85a42 42 0 0 0 4.06-12.7c4.24-4.3 6.85-10.09 8.64-14.64l.1-.02q.22 0 .28.2a48.3 48.3 0 0 1-11.48 28.4q-.25.31-.5.7c-.58.82-1.23 1.76-2.32 1.78Zm14.03-31.06-.09.01c-1.79 4.55-4.4 10.33-8.64 14.64a42 42 0 0 1-4.05 12.7q-.2.4-.49.85c-.53.87-1.14 1.86-.75 2.84 1.08-.02 1.73-.95 2.3-1.77l.5-.7a48.2 48.2 0 0 0 11.48-28.39q-.06-.18-.26-.18" transform="translate(-92.73 -68.72)"/></g><g transform="translate(155.766 481.308)scale(2.29)"><linearGradient id="q" x1="0" x2="1" y1="0" y2="0" gradientUnits="objectBoundingBox"><stop offset="0%" stop-color="#ff6cab"/><stop offset="100%" stop-color="#7366ff"/></linearGradient><path fill="url(#q)" fill-rule="evenodd" d="M142.451 185.92a44 44 0 0 0 13.4 16.05c.06 5.53 2.1 10.02 3.54 13.58-2.25.5-4.9 0-6.88-.35a51 51 0 0 1-15-16.76c-1.96-3.53-3.8-6.82-3.7-12.35 2.57.25 6.32.4 8.64-.18" transform="translate(-15.7 -76.42)"/></g><g transform="translate(155.766 481.308)scale(2.29)"><linearGradient id="r" x1="0" x2="1" y1="0" y2="0" gradientUnits="objectBoundingBox"><stop offset="0%" stop-color="#ff6cab"/><stop offset="100%" stop-color="#7366ff"/></linearGradient><path fill="url(#r)" d="M157.271 215.77a27 27 0 0 1-4.53-.52l-.23-.04a51 51 0 0 1-15-16.77l-.04-.05c-1.94-3.5-3.77-6.79-3.67-12.3v-.01c1.04.1 2.63.22 4.33.22q2.7 0 4.32-.4a44.4 44.4 0 0 0 13.42 16.06c.04 5.1 1.78 9.32 3.17 12.71l.36.87v.01h-.01q-.95.22-2.12.22m-23.45-29.67c-.1 5.5 1.73 8.8 3.67 12.28l.03.05a51 51 0 0 0 15 16.76l.22.04c1.32.23 2.95.52 4.53.52q1.16 0 2.1-.2-.16-.43-.35-.87c-1.4-3.4-3.12-7.61-3.17-12.71a44 44 0 0 1-13.4-16.05q-1.6.4-4.32.4c-1.7 0-3.28-.12-4.31-.22" transform="translate(-15.7 -76.42)"/></g><g transform="translate(273.747 516.963)scale(2.29)"><linearGradient id="s" x1="0" x2="1" y1="0" y2="0" gradientUnits="objectBoundingBox"><stop offset="0%" stop-color="#ff6cab"/><stop offset="100%" stop-color="#7366ff"/></linearGradient><path fill="url(#s)" fill-rule="evenodd" d="M180.381 223.84c-.1-.26.2-.91-.18-.88 6.9-1.58 13.12-3.81 16.94-8.47 7.63-.31 13.9-1.97 18.17-5.64 2.14.73-1.01 2.63-2.3 3.7-7.65 6.37-19.44 12.33-32.63 11.3" transform="translate(-67.22 -91.99)"/></g><g transform="translate(273.747 516.963)scale(2.29)"><linearGradient id="t" x1="0" x2="1" y1="0" y2="0" gradientUnits="objectBoundingBox"><stop offset="0%" stop-color="#ff6cab"/><stop offset="100%" stop-color="#7366ff"/></linearGradient><path fill="url(#t)" d="M183.401 223.97q-1.51 0-3.02-.12-.05-.16 0-.4c.01-.17.04-.35-.03-.43q-.04-.06-.15-.05v-.02c6.09-1.4 12.85-3.49 16.93-8.46 8.2-.34 14.15-2.19 18.18-5.65q.66.23.73.62c.11.71-1.19 1.7-2.23 2.49l-.79.6c-4.12 3.45-15.26 11.43-29.62 11.43m-3.12-1.02.08.05c.08.1.05.27.03.45a1 1 0 0 0 0 .39q1.5.1 3 .1c14.36 0 25.5-7.97 29.62-11.4l.78-.6c1.04-.8 2.34-1.77 2.23-2.47q-.06-.4-.71-.61c-4.02 3.46-9.97 5.3-18.17 5.64-4.06 4.96-10.8 7.06-16.86 8.45" transform="translate(-67.22 -91.99)"/></g><g transform="translate(234.565 420.165)scale(2.29)"><linearGradient id="u" x1="0" x2="1" y1="0" y2="0" gradientUnits="objectBoundingBox"><stop offset="0%" stop-color="#ff6cab"/><stop offset="100%" stop-color="#7366ff"/></linearGradient><path fill="url(#u)" d="M181.011 224.09c-27.575-.029-49.922-22.376-49.95-49.95.028-27.576 22.375-49.923 49.95-49.95 27.575.027 49.922 22.374 49.95 49.95-.028 27.58-22.38 49.927-49.96 49.95m0-98.52c-26.81.027-48.533 21.76-48.55 48.57.022 26.805 21.744 48.531 48.55 48.56 26.81-.023 48.538-21.75 48.56-48.56-.017-26.81-21.74-48.543-48.55-48.57" transform="translate(-50.11 -49.72)"/></g><rect width="236.394" height="93.79" x="97.46" y="158.083" fill="none" rx="0" ry="0" transform="translate(516.4 423.4)scale(1.39)"/><path fill="#fff" d="M711.524 665.647q0 .584-.18 3.002-.167 2.419-.167 6.005 0 3.225.348 8.757 0 3.128-4.045 3.128h-20.294l-.236 11.87q-.112 1.974-.112 9.814 0 8.075.112 15.693.11 7.617.11 13.15l.126 4.725v.584q0 1.029-.292 1.265t-.75.236h-8.535q-1.39 0-1.627-.472-.222-.46-.222-1.668v-1.794l.459-14.303q.695-18.681.695-23.991 0-3.002-.237-9.007l-.11-6.102q-8.313 0-16.848.222l-3.572.11q-1.501 0-2.085-.805-.57-.806-.222-1.835l.11-2.891q.237-6.686.237-12.343 0-2.766-.125-3.35v-.806q0-1.265.528-1.501.515-.223 1.557-.223h11.426l6.45-.125q6.004-.222 8.423-.222l6.922.11q8.312.237 13.038.237 3.462 0 4.504-.125 2.53-.111 3.572.75 1.043.876 1.043 1.905m61.035 74.976q1.612 2.544 1.612 3.35 0 .459-.584.57-.57.125-.973.125h-.64l-13.037.348q-.918 0-1.446-.806-.514-.82-1.432-2.892-.583-1.723-2.085-4.614-2.307-4.157-7.95-15.568l-5.894-11.426.347 6.116.584 8.77q.68 15.457 1.154 17.07.11.459.11 1.154 0 2.07-2.195 2.07-.695 0-1.154-.11-1.848-.237-8.993.458-4.851.459-5.88.459-1.5 0-2.03-.57-.513-.584-.513-1.96l.11-2.655-.222-6.686q-.695-12.01-.695-20.891 0-4.615.348-6.34.57-2.89.57-16.276 0-13.955-.46-21.1-.11-.931-.11-2.544 0-1.848.347-2.654.348-.807.75-.862.404-.056 1.433-.056l2.543-.236q7.965-.918 12.69-.918 12.928 0 19.433 6.63 6.52 6.63 6.52 17.25 0 8.424-5.422 16.152-2.307 3.336-5.295 5.99l8.075 14.65q8.883 15.93 10.384 18.002m-33.124-46.26q1.737 0 3.128-.694 3.224-1.501 3.224-6.116 0-3.336-1.042-4.962-1.03-1.613-2.655-1.613-1.265 0-2.182.932-.125.11 0 1.612.11 1.5.11 3.003 0 1.264-.11 1.834-.473 1.96-.473 4.045l-.111 1.043Zm94.27 47.887q.333.82.333 1.153 0 .473-1.264.473h-6.464q-.46 0-.75-.18-.28-.167-.515-.862-.46-1.265-1.265-4.157-1.042-2.877-1.39-5.184-.347-1.738-1.098-4.156-.75-2.42-1.32-3.698-1.043-2.182-1.85-4.962l-1.042-3.336q-.57-1.28-.861-1.557-.292-.292-.973-.292-2.433 0-3.587.11l-4.962.238q-.917.11-8.534.11h-7.27q-.695 0-1.03 1.266l-.235 1.154-.46 2.196q-.235.584-1.5 6.686-.347 1.973-1.154 5.087-.236 2.307-1.042 3.809-.223.333-.57 1.612-.348 1.265-.584 2.07-.347.932-.806 3.004-.111.11-.236.514-.112.403-.334.459-.236.07-.695.07h-2.307q-1.043 0-.584-1.502 0-.348.125-.584 0-.222.11-.57.112-.347.349-1.042l1.028-4.268.82-2.418q.57-1.738.807-3.24.57-2.765 2.182-8.422l.93-3.225q2.183-7.16 2.767-10.036l1.613-6.116q1.153-3.81 1.39-4.851.806-3.461 2.307-8.646l.806-3.24.695-2.417q1.154-3.92 1.96-5.657.222-.682 1.668-4.782t1.904-6.52q.807-2.765 1.668-4.155.876-1.376 2.377-1.376.57 0 1.154 1.028.57 1.043 1.154 2.544.57 1.5.806 2.196.917 2.182 3.225 10.953l.917 3.24q.125.916 3.809 11.3l2.196 6.338 2.07 5.435q3.24 9.105 4.157 11.064 4.045 12.232 4.74 14.776.806 3.003 2.585 7.492 1.794 4.504 2.03 5.074m-21.587-34.264q1.5 0 1.5-.806 0-.57-.805-2.53-.695-1.737-2.071-6.463-1.042-3.81-2.085-6.575-1.154-3.461-2.474-8.2-1.32-4.727-1.557-6.103-1.737-6.116-2.307-6.116-.348 0-1.154 3.114l-.695 2.53q-.806 3.113-2.071 7.797-1.28 4.67-2.308 7.895-.695 3.003-1.904 7.562t-1.904 6.283q-.236.695-.236.806 0 .806.75 1.043t1.5.166q.75-.055.988-.055l6.686-.223q1.39-.236 3.92-.236Zm50.749-44.87q7.047 0 14.998 3.74 7.965 3.753 13.97 13.678 5.99 9.924 5.99 26.994 0 15.58-7.436 23.588-7.437 8.02-15.638 10.272-8.187 2.252-13.608 2.252l-9.466.11q-2.53.126-6.227.126-2.196 0-2.196-3.934l.125-2.988-.236-5.77-.111-5.197-.112-3.461q-.472-5.991-.472-13.608 0-4.504.472-11.885.46-7.38.46-12.12l-.126-15.457q-.111-1.85-.111-4.157 0-1.264 1.668-1.556 1.682-.278 3.53-.223 1.835.056 2.53.056l4.156-.236q4.85-.223 7.84-.223m.236 56.059q3.114-1.488 5.769-4.142 5.768-5.547 5.768-13.164 0-7.256-5.532-11.648-2.432-1.85-5.421-2.766.222 2.544.222 3.92 0 2.196-.222 6.352-.236 3.92-.236 5.769 0 2.988-.237 9.688-.11 1.96-.11 5.99M955.638 675q0 2.307-.348 4.267-.125 1.723-1.612 1.723-.473 0-1.28-.222-.805-.236-1.264-.347-1.738-.348-10.036-.348l-4.392-.125q-1.488-.111-4.38-.111-2.07 0-3.112.11-3.461.237-6.116.237l-6.116-.11q-.918 0-1.043.402-.111.403-.111 1.904 0 2.072-.111 3.573-.237 4.615-.237 7.506v6.797q0 2.432.125 3.697.918.11 3.114.11 1.96.113 8.076.113 2.53 0 7.38-.223 3.684-.236 4.838-.236 1.626 0 3.239.18 1.612.167 2.418.167 1.502 0 1.502 1.39 0 .46-.112 1.32-.125.863-.125 2.253l.125 6.116q0 1.042-.236 1.445-.222.403-.806.403-.348 0-.987-.18-.625-.167-1.084-.167-1.043 0-3.864-.111-2.836-.125-7.673-.125-5.2 0-9.007.458-3.81.473-4.615.473-1.265 0-1.501-.125-.57 0-.682-.111v11.537q.807 0 1.265-.112l3.225-.125 13.622-.11q4.142 0 6.575.11l7.95.125 4.852-.125q1.39 0 1.848.64.46.64.46 1.793l-.112 2.307-.125 8.076q0 1.849-.806 2.252-.807.403-2.308.334-1.5-.056-2.418-.056-4.963 0-8.535-.111l-11.773-.111q-1.376 0-13.845.347l-4.378.11-.695.112q-.695 0-.806-.403t-.112-1.556q-.125-1.265-.125-4.268 0-.917-.11-2.015-.112-1.098-.112-2.947v-15.804q0-2.308.167-4.504.18-2.182.18-3.225.46-5.31.46-10.147 0-6.005-.348-9.466-.237-3.92-.237-7.158 0-7.27.348-16.958 0-1.501.584-2.016.57-.514 1.612-.514l1.724.11q1.042 0 3.35.168 2.307.18 5.657.18 3.808 0 8.993-.583 6.227-.46 8.312-.46 4.726 0 8.646.349l4.156.11q1.5 0 1.96.696t.459 2.544q0 1.028.236 3.572.236 3.002.236 5.199"/><rect width="208.577" height="42.94" x="111.368" y="183.508" fill="none" rx="0" ry="0" transform="translate(659.844 669.498)scale(1.39)"/><path fill="#fff" d="M824.987 970.792q-1.946 0-3.587-.473-1.64-.473-2.585-1.85-.96-1.375-.96-4.113V939.1h.849v25.09q0 2.432.903 3.669.89 1.25 2.35 1.668 1.445.417 3.03.417 1.64 0 3.197-.417 1.556-.417 2.613-1.668 1.056-1.237 1.056-3.67v-25.09h.848v25.257q0 2.738-1.084 4.114t-2.85 1.85q-1.765.472-3.78.472m16.04-.472h-.833v-26.147h.737l.097 2.752q.584-1.223 1.932-2.196t3.837-.973q2.21 0 3.502.598 1.293.612 1.877 1.64t.737 2.252q.166 1.21.166 2.419v19.654h-.848V951.15q0-1.585-.264-3.1-.264-1.5-1.404-2.474-1.126-.987-3.767-.987-2.905 0-4.336 1.585t-1.432 3.864Zm19.724 0h-.848v-33.277h.848Zm13.038.374q-2.265 0-3.558-.611-1.293-.612-1.877-1.613-.583-1-.736-2.237-.167-1.251-.167-2.46v-13.108q0-1.21.167-2.42.153-1.222.764-2.25.612-1.03 1.932-1.641 1.32-.598 3.698-.598 2.905 0 4.225 1.057t1.71 2.64q.403 1.585.403 3.212v13.107q0 1.64-.403 3.225-.39 1.585-1.765 2.64t-4.393 1.057m0-.847q2.753 0 3.948-.973 1.18-.987 1.473-2.433.292-1.46.292-2.836V950.83q0-1.431-.292-2.85-.292-1.43-1.431-2.404-1.126-.987-3.767-.987-2.113 0-3.308.584-1.182.584-1.682 1.515-.515.917-.612 2.002-.111 1.084-.111 2.14v12.774q0 1.057.11 2.14.098 1.085.585 2.016.472.918 1.612 1.502 1.126.583 3.183.583m19.127.847q-2.266 0-3.56-.611-1.305-.612-1.875-1.613-.584-1-.75-2.237-.154-1.251-.154-2.46v-13.108q0-1.21.153-2.42.167-1.222.75-2.25.57-1.03 1.877-1.641 1.293-.598 3.559-.598 2.224 0 3.516.598 1.293.612 1.877 1.64.57 1.029.737 2.252.153 1.21.153 2.419v2.335h-.848v-2.17q0-1.43-.278-2.85-.292-1.43-1.432-2.403-1.14-.987-3.725-.987t-3.753.987q-1.154.973-1.446 2.405-.292 1.418-.292 2.85v12.773q0 1.377.292 2.836.292 1.446 1.446 2.433 1.167.973 3.753.973 2.585 0 3.725-.973 1.14-.987 1.432-2.433.278-1.46.278-2.836v-2.112h.848v2.28q0 1.64-.32 3.224-.306 1.585-1.626 2.64t-4.337 1.057m13.192-.373h-.848v-33.277h.848v17.639h2l7.243-10.51h1l-7.547 10.982 7.868 15.165h-.904l-7.7-14.79h-1.96Zm27.216 0h-.85v-13.36l-5.753-17.861h.903l5.324 16.694 5.977-16.694h.89l-6.492 17.86Zm15.998.374q-2.266 0-3.558-.611-1.293-.612-1.877-1.613t-.737-2.237q-.166-1.251-.166-2.46v-13.108q0-1.21.166-2.42.153-1.222.765-2.25.612-1.03 1.932-1.641 1.32-.598 3.697-.598 2.906 0 4.226 1.057t1.71 2.64q.403 1.585.403 3.212v13.107q0 1.64-.403 3.225-.39 1.585-1.766 2.64t-4.392 1.057m0-.847q2.752 0 3.948-.973 1.18-.987 1.473-2.433.292-1.46.292-2.836V950.83q0-1.431-.292-2.85-.292-1.43-1.432-2.404-1.126-.987-3.767-.987-2.112 0-3.308.584-1.181.584-1.682 1.515-.514.917-.611 2.002-.112 1.084-.112 2.14v12.774q0 1.057.112 2.14.097 1.085.583 2.016.473.918 1.613 1.502 1.126.583 3.183.583m19.529.89q-2.21 0-3.502-.598-1.293-.611-1.877-1.64t-.737-2.252q-.166-1.21-.166-2.418v-19.655h.847v19.168q0 1.543.265 3.072.264 1.53 1.403 2.502 1.126.987 3.767.987 2.905 0 4.226-1.46 1.32-1.445 1.543-3.725v-20.544h.834v26.147h-.737l-.097-2.64q-.584 1.208-1.932 2.14-1.35.917-3.837.917m14.65-.417h-.847v-26.147h.737l.11 2.64q.585-1.21 1.933-2.14 1.349-.917 3.823-.917 1.112 0 1.96.153v.848q-.848-.167-1.96-.167-2.905 0-4.323 1.543-1.432 1.53-1.432 3.642Zm23.13 0h-.833v-30.372h-5.866v-.848h12.62v.848h-5.92Zm15.43.374q-2.266 0-3.56-.611-1.305-.612-1.875-1.613-.584-1-.75-2.237-.154-1.251-.154-2.46v-13.108q0-1.627.376-3.211.36-1.585 1.71-2.641t4.253-1.057q2.96 0 4.28 1t1.669 2.586q.334 1.585.334 3.323v5.768h-11.774v7.172q0 1.543.292 2.989.292 1.46 1.446 2.349 1.167.904 3.753.904 2.585 0 3.725-.904 1.14-.89 1.432-2.321.278-1.432.278-3.017v-2.112h.848v2.28q0 1.64-.32 3.224-.306 1.585-1.626 2.64t-4.337 1.057m-5.49-19.543v4.434h10.925v-4.434q0-1.85-.265-3.336-.264-1.473-1.39-2.35-1.14-.875-3.78-.875-2.322 0-3.517.82-1.182.82-1.585 2.28-.39 1.445-.39 3.46m23.242 19.364q-1.223 0-2.516-.417-1.293-.431-2.182-1.724-.904-1.293-.904-3.99v-1.792q0-1.682.765-2.961.764-1.265 1.848-2.127 1.085-.876 2.113-1.432t1.5-.82q2.114-1.167 3.31-2.03 1.18-.875 1.71-1.792.528-.931.528-2.252v-.737q0-1.793-.765-2.585-.764-.792-1.918-1.015-1.168-.208-2.377-.208-2.335 0-3.461.792-1.14.792-1.487 2.113-.334 1.32-.334 2.96v2.169h-.848v-2.28q0-3.058 1.21-4.823 1.223-1.78 4.92-1.78 2.85 0 4.087.75 1.237.738 1.529 1.92.29 1.195.29 2.613v21.24h-.791v-3.851q-.625 1.848-2.238 2.947-1.612 1.112-3.99 1.112m.154-.848q2.32 0 3.628-1.001 1.292-1 1.848-2.738.543-1.752.543-3.92v-9.716q-.834 1.167-2.294 2.043-1.446.862-2.988 1.765-1.32.737-2.614 1.557-1.292.82-2.154 2.085-.876 1.265-.876 3.28v1.363q0 2.488.792 3.6.793 1.112 1.946 1.404 1.168.278 2.169.278m14.525.654h-.848v-26.147h.75l.098 2.64q.584-1.21 1.932-2.14 1.349-.917 3.823-.917 3.127 0 4.392 1.126 1.265 1.14 1.64 2.724.57-1.793 2.113-2.821 1.53-1.03 3.962-1.03 2.21 0 3.503.599 1.292.612 1.876 1.64t.737 2.252q.167 1.21.167 2.419v19.654h-.848V951.15q0-1.585-.264-3.1-.264-1.5-1.404-2.474-1.126-.987-3.767-.987-2.905 0-4.254 1.696t-1.556 4.379v19.654h-.848V951.15q0-1.585-.264-3.1-.264-1.5-1.404-2.474-1.14-.987-3.781-.987-2.905 0-4.226 1.46-1.32 1.445-1.53 3.725Zm31.595-10.3h-.486l-.153-8.563v-14.415h.848v14.415Zm-.222 10.452q-.834 0-.834-.834 0-.848.834-.848.848 0 .848.848 0 .834-.848.834"/><g transform="matrix(.81 0 0 .81 462.12 316.76)"><linearGradient id="v" x1="0" x2="1" y1="0" y2="0" gradientUnits="objectBoundingBox"><stop offset="0%" stop-color="#fff72e"/><stop offset="100%" stop-color="#deae29"/></linearGradient><path fill="url(#v)" d="M471.079 391.513h-38.19l-11.81-36.32-11.81 36.32h-38.19l30.9 22.46-11.81 36.34 30.91-22.46 30.9 22.45-11.8-36.34Zm-25.19 50.44-24.81-18.05v-16.12l-24.83 34.16 9.49-29.2 15.33-4.98-40.15-13.05h30.67l9.47 13.05h.02v-42.23l9.49 29.18-9.49 13.05 40.16-13.05-24.82 18.04-15.34-5v.02Z" transform="translate(-51 -51)"/></g><g transform="matrix(.81 0 0 .81 542.58 316.69)"><linearGradient id="w" x1="0" x2="1" y1="0" y2="0" gradientUnits="objectBoundingBox"><stop offset="0%" stop-color="#fff72e"/><stop offset="100%" stop-color="#deae29"/></linearGradient><path fill="url(#w)" d="M471.079 391.513h-38.19l-11.81-36.32-11.81 36.32h-38.19l30.9 22.46-11.81 36.34 30.91-22.46 30.9 22.45-11.8-36.34Zm-25.19 50.44-24.81-18.05v-16.12l-24.83 34.16 9.49-29.2 15.33-4.98-40.15-13.05h30.67l9.47 13.05h.02v-42.23l9.49 29.18-9.49 13.05 40.16-13.05-24.82 18.04-15.34-5v.02Z" transform="translate(-51 -51)"/></g><g transform="matrix(.81 0 0 .81 623.2 316.69)"><linearGradient id="x" x1="0" x2="1" y1="0" y2="0" gradientUnits="objectBoundingBox"><stop offset="0%" stop-color="#fff72e"/><stop offset="100%" stop-color="#deae29"/></linearGradient><path fill="url(#x)" d="M471.079 391.513h-38.19l-11.81-36.32-11.81 36.32h-38.19l30.9 22.46-11.81 36.34 30.91-22.46 30.9 22.45-11.8-36.34Zm-25.19 50.44-24.81-18.05v-16.12l-24.83 34.16 9.49-29.2 15.33-4.98-40.15-13.05h30.67l9.47 13.05h.02v-42.23l9.49 29.18-9.49 13.05 40.16-13.05-24.82 18.04-15.34-5v.02Z" transform="translate(-51 -51)"/></g><g transform="translate(364.275 315.905)scale(1.13)"><linearGradient id="y" x1="0" x2="1" y1="0" y2="0" gradientUnits="objectBoundingBox"><stop offset="0%" stop-color="#8c8c8c"/><stop offset="49.8%" stop-color="#e3e4e5"/><stop offset="100%" stop-color="#8c8c8c"/></linearGradient><path fill="url(#y)" d="M311.018 273.491c5.56 2.99 4.27 21.17 1.11 31.47l14.7 15.62 22.58 24.9s-4.9 6.82-9.53 1.86-19.85-20.65-19.85-20.65l-20.42-18.09s-2.18-1.14-2.17-3.64c0-2.5.86-19.7.22-24.91 0 0 1.44-1 3.55.25 0 0 1.32-2.66-13.2-10.36l-15.82-8.28s-2.61-1.65-1.26-4.52c1.25-2.67 4.16-2.12 5.11-1.47s13.08 6.76 13.08 6.76" transform="translate(-44.7 -50)"/></g><g transform="translate(420.414 355.749)scale(1.13)"><linearGradient id="z" x1="0" x2="1" y1="0" y2="0" gradientUnits="objectBoundingBox"><stop offset="0%" stop-color="#8c8c8c"/><stop offset="49.8%" stop-color="#e3e4e5"/><stop offset="100%" stop-color="#8c8c8c"/></linearGradient><path fill="url(#z)" d="M265.278 242.901a9.24 9.24 0 1 0 0 18.48 9.24 9.24 0 1 0 0-18.48"/></g><g transform="translate(339.009 334.866)scale(1.13)"><linearGradient id="A" x1="0" x2="1" y1="0" y2="0" gradientUnits="objectBoundingBox"><stop offset="0%" stop-color="#8c8c8c"/><stop offset="49.8%" stop-color="#e3e4e5"/><stop offset="100%" stop-color="#8c8c8c"/></linearGradient><path fill="url(#A)" d="M306.338 320.191s-2.05 4.38-4.8 4.89-32.6-.67-32.6-.67-.82-7.93 4.56-7.93 21.54-.38 21.54-.38l3.28-3.46Z" transform="translate(-22.34 -66.78)"/></g><g transform="translate(341.845 313.973)scale(1.13)"><linearGradient id="B" x1="0" x2="1" y1="0" y2="0" gradientUnits="objectBoundingBox"><stop offset="0%" stop-color="#8c8c8c"/><stop offset="49.8%" stop-color="#e3e4e5"/><stop offset="100%" stop-color="#8c8c8c"/></linearGradient><path fill="url(#B)" d="M294.688 294.621v8.34l-3.2 2.54s-3.55 2.37-5.64-1.33c-1.22-2.8 1.77-4.84 2.5-5.43s6.34-4.12 6.34-4.12" transform="translate(-24.85 -48.29)"/></g><g transform="translate(373.598 276.22)scale(1.13)"><linearGradient id="C" x1="0" x2="1" y1="0" y2="0" gradientUnits="objectBoundingBox"><stop offset="0%" stop-color="#8c8c8c"/><stop offset="49.8%" stop-color="#e3e4e5"/><stop offset="100%" stop-color="#8c8c8c"/></linearGradient><path fill="url(#C)" d="M319.548 276.091s-2.7 1.48-3.65-1.1c-.62-2-1.52-3.5-2.8-4.2l-1.61-.81-.26-.13-.8-.4 3.57-9.24s2.78-5.46 9.43-.79c3.01 2.75 2.84 5.11 2.21 8.27-.86 4.36-6.09 8.4-6.09 8.4" transform="translate(-52.94 -14.88)"/></g></g><path fill="transparent" stroke="transparent" stroke-width="1.46" d="M250 431.022h1000v637.956H250z"/></g></svg>